<?xml version="1.0" ?><!DOCTYPE svg  PUBLIC '-//W3C//DTD SVG 1.1//EN'  'http://www.w3.org/Graphics/SVG/1.1/DTD/svg11.dtd'><svg enable-background="new 0 0 512 512" height="512px" id="Слой_1" version="1.1" viewBox="0 0 512 512" width="512px" xml:space="preserve" xmlns="http://www.w3.org/2000/svg" xmlns:xlink="http://www.w3.org/1999/xlink"><path d="M487.941,296.967c2.328-13.311,3.563-27.029,3.563-40.966c0-130.058-105.446-235.554-235.502-235.554  c-13.983,0-27.655,1.25-40.982,3.594c-22.11-15.156-48.812-24.031-77.623-24.031c-75.872,0-137.384,61.498-137.384,137.37  c0,28.843,8.858,55.561,24.015,77.685c-2.313,13.281-3.531,26.999-3.531,40.936c0,130.058,105.401,235.554,235.505,235.554  c13.951,0,27.67-1.219,40.981-3.563c22.077,15.156,48.81,23.998,77.637,23.998c75.855,0,137.368-61.496,137.368-137.369  C511.987,345.811,503.098,319.061,487.941,296.967z M357.167,352.246c-8.969,12.781-22.153,22.781-39.467,30  c-17.313,7.25-37.857,10.844-61.574,10.844c-28.499,0-51.998-4.906-70.497-14.813c-13.078-7.094-23.733-16.594-31.968-28.5  c-8.171-11.842-12.312-23.404-12.312-34.654c0-6.5,2.484-12.094,7.375-16.719c4.937-4.656,11.218-6.938,18.827-6.938  c6.156,0,11.406,1.781,15.654,5.438c4.203,3.563,7.906,8.969,10.891,16.031c3.688,8.5,7.671,15.529,11.921,21.188  c4.25,5.688,10.265,10.375,18,13.998c7.749,3.719,17.937,5.564,30.481,5.564c17.373,0,31.438-3.75,42.231-11.125  c10.812-7.439,16.249-16.656,16.249-27.781c0-8.779-2.893-15.938-8.749-21.404c-5.845-5.531-13.392-9.719-22.671-12.625  c-9.234-2.844-21.563-5.906-37.076-9.156c-20.718-4.529-38.077-9.75-52.045-15.655c-13.937-6.031-25.092-14.125-33.217-24.437  c-8.267-10.343-12.328-23.187-12.328-38.436c0-14.656,4.312-27.593,13-38.905c8.609-11.313,21.17-20.063,37.561-26.124  c16.438-6.125,35.701-9.125,57.842-9.125c17.701,0,33.075,1.968,45.965,6.031c12.938,4.031,23.642,9.375,32.188,16.062  c8.453,6.75,14.749,13.781,18.671,21.093c3.938,7.344,5.893,14.531,5.893,21.5c0,6.438-2.453,12.218-7.299,17.343  c-4.951,5.093-11.106,7.687-18.45,7.687c-6.672,0-11.813-1.563-15.267-4.625s-7.232-8.125-11.28-15.125  c-5.266-9.968-11.563-17.843-18.92-23.468c-7.358-5.563-19.172-8.375-35.42-8.375c-15.094,0-27.218,3.062-36.498,9.156  c-9.266,6.063-13.859,13.406-13.859,21.937c0,5.313,1.547,9.938,4.719,13.75c3.142,3.875,7.468,7.188,12.984,9.969  c5.483,2.781,11.077,4.906,16.732,6.563c5.642,1.531,14.938,3.813,27.938,6.781c16.232,3.531,30.951,7.406,44.152,11.656  c13.172,4.218,24.392,9.313,33.655,15.343c9.296,6.094,16.499,13.654,21.64,22.904c5.202,9.221,7.78,20.531,7.78,33.904  C370.619,325.029,366.104,339.436,357.167,352.246z" id="Skype_3_"/></svg>